<?xml version="1.0" standalone="no"?><!DOCTYPE svg PUBLIC "-//W3C//DTD SVG 1.1//EN" "http://www.w3.org/Graphics/SVG/1.1/DTD/svg11.dtd"><svg t="1695889385985" class="icon" viewBox="0 0 1024 1024" version="1.1" xmlns="http://www.w3.org/2000/svg" p-id="8379" xmlns:xlink="http://www.w3.org/1999/xlink" width="200" height="200"><path d="M202.4 488.2C97.2 488.2 12 573.4 12 678.6s85.2 190.4 190.4 190.4 190.4-85.2 190.4-190.4-85.2-190.4-190.4-190.4z m0 330.2c-77.2 0-139.6-62.6-139.6-139.6 0-77.2 62.6-139.6 139.6-139.6s139.6 62.6 139.6 139.6-62.4 139.6-139.6 139.6z" fill="#5A309D" p-id="8380"></path><path d="M342 678.6c0 77.2-62.6 139.6-139.6 139.6v50.8c105.2 0 190.4-85.2 190.4-190.4s-85.2-190.4-190.4-190.4v50.8c77.2 0 139.6 62.6 139.6 139.6z" fill="#5A309D" p-id="8381"></path><path d="M821.6 488.2c-105.2 0-190.4 85.2-190.4 190.4s85.2 190.4 190.4 190.4 190.4-85.2 190.4-190.4-85.2-190.4-190.4-190.4z m0 330.2c-77.2 0-139.6-62.6-139.6-139.6 0-77.2 62.6-139.6 139.6-139.6s139.6 62.6 139.6 139.6-62.4 139.6-139.6 139.6z" fill="#5A309D" p-id="8382"></path><path d="M821.6 488.2v50.8c77.2 0 139.6 62.6 139.6 139.6 0 77.2-62.6 139.6-139.6 139.6v50.8c105.2 0 190.4-85.2 190.4-190.4s-85.2-190.4-190.4-190.4z" fill="#5A309D" p-id="8383"></path><path d="M267 274l7-69c1.4-13-8.2-24.8-21.4-26-0.8 0-1.8-0.2-2.6-0.2H131.2C78.6 178.6 36 221.4 36 274s42.8 95.2 95.2 95.2c13.2 0 23.8-10.6 23.8-23.8s-10.6-23.8-23.8-23.8c-26.2 0-47.6-21.4-47.6-47.6 0-26.2 21.4-47.6 47.6-47.6H224l-4.8 47.6h47.8z" fill="#5A309D" p-id="8384"></path><path d="M131.2 369.2c13.2 0 23.8-10.6 23.8-23.8 0-13.2-10.6-23.8-23.8-23.8-26.2 0-47.6-21.4-47.6-47.6 0-8.6 2.4-16.8 6.4-23.8H39c-2 7.6-3 15.6-3 23.8 0 52.4 42.6 95.2 95.2 95.2zM221.6 250.2l-2.4 23.8h47.8l2.4-23.8z" fill="#5A309D" p-id="8385"></path><path d="M840.8 664.4L594.4 332.8l12.8-128c1.4-13-8.2-24.8-21.4-26-13-1.4-24.8 8.2-26 21.4l-12.2 121.4H262.2l4.8-47.6h-47.8L179 676.4c-1.4 13 8.2 24.8 21.4 26 0.8 0 1.6 0.2 2.4 0.2 12 0 22.4-9.2 23.6-21.4l25.8-258.8 266.8 273c1.2 1.2 2.4 2.2 3.8 3 0 0 0.2 0 0.2 0.2l1.8 1.2c0.2 0 0.2 0.2 0.4 0.2 0.6 0.2 1.2 0.6 1.6 0.8 0.2 0 0.4 0.2 0.4 0.2l1.8 0.6c0.2 0 0.4 0 0.4 0.2 0.6 0.2 1.2 0.4 1.8 0.4h0.4c0.6 0.2 1.2 0.2 2 0.2s1.6 0.2 2.4 0.2H821.6c9 0 17.2-5 21.2-13.2 4.2-8 3.4-17.8-2-25z m-323.4-38.8L266.8 369.2h276.2l-25.6 256.4z m44.8 29.2l25.2-251.6 186.8 251.6h-212z" fill="#5A309D" p-id="8386"></path><path d="M594.4 332.8l12.8-128c1.4-13-8.2-24.8-21.4-26-13-1.4-24.8 8.2-26 21.4l-12.2 121.4h-84.4v47.6h79.6l-25.6 256.4-54-55.2v68.2l55.6 56.8c1.2 1.2 2.4 2.2 3.8 3 0 0 0.2 0 0.2 0.2l1.8 1.2c0.2 0 0.2 0.2 0.4 0.2 0.6 0.2 1.2 0.6 1.6 0.8 0.2 0 0.4 0.2 0.4 0.2l1.8 0.6c0.2 0 0.4 0 0.4 0.2 0.6 0.2 1.2 0.4 1.8 0.4h0.4c0.6 0.2 1.2 0.2 2 0.2s1.6 0.2 2.4 0.2H821.4c9 0 17.2-5 21.2-13.2 4-8 3.2-17.6-2.2-24.8l-246-331.8z m-32.2 322l25.2-251.6 186.8 251.6h-212z" fill="#5A309D" p-id="8387"></path><path d="M464.4 186.4v-15.6c0-8.8 7.2-16 16-16h206c8.8 0 16 7.2 16 16v15.6c0 8.8-7.2 16-16 16h-206c-8.8 0-16-7-16-16z" fill="#5A309D" p-id="8388"></path><path d="M678.8 154.8h-71.4c13.2 0 23.8 10.6 23.8 23.8s-10.6 23.8-23.8 23.8h71.4c13.2 0 23.8-10.6 23.8-23.8s-10.6-23.8-23.8-23.8z" fill="#5A309D" p-id="8389"></path><path d="M488.4 202.4h71.4c-13.2 0-23.8-10.6-23.8-23.8s10.6-23.8 23.8-23.8h-71.4c-13.2 0-23.8 10.6-23.8 23.8s10.6 23.8 23.8 23.8z" fill="#5A309D" p-id="8390"></path><path d="M536 678.6m-72.6 0a72.6 72.6 0 1 0 145.2 0 72.6 72.6 0 1 0-145.2 0Z" fill="#5A309D" p-id="8391" data-spm-anchor-id="a313x.search_index.0.i1.9a5a3a81ogF2n9"></path><path d="M536 606.2c-12.8 0-24.8 3.4-35.2 9.2 22.2 12.4 37.4 36.2 37.4 63.4s-15 51-37.4 63.4c10.4 5.8 22.4 9.2 35.2 9.2 40 0 72.6-32.4 72.6-72.6S576 606.2 536 606.2z" fill="#5A309D" p-id="8392"></path><path d="M821.6 476.2c-32.4 0-63 7.6-90 21.2l-124.8-168 11.6-115.2h60.6c19.6 0 35.8-16 35.8-35.8s-16-35.8-35.8-35.8h-190.4c-19.6 0-35.8 16-35.8 35.8s16 35.8 35.8 35.8h58.2l-9.6 95.2H275.4l3.4-34.6 7-69c2-19.6-12.4-37.2-32-39-1.2-0.2-2.4-0.2-3.6-0.2H131.2C72 166.8 24 214.8 24 274s48 107.2 107.2 107.2c19.6 0 35.8-16 35.8-35.8s-16-35.8-35.8-35.8-35.8-16-35.8-35.8 16-35.8 35.8-35.8h79.6l-3.4 34.6-20.6 204.4C82.6 485 0 572.2 0 678.6c0 111.6 90.8 202.4 202.4 202.4s202.4-90.8 202.4-202.4c0-92.4-62.2-170.2-146.8-194.6l3.6-35.4 195.4 200c-3.6 9.2-5.4 19.2-5.4 29.8 0 46.6 37.8 84.4 84.4 84.4 33.8 0 63-20 76.4-48.8h10c17 94.6 99.8 166.6 199.2 166.6 111.6 0 202.4-90.8 202.4-202.4s-90.8-202-202.4-202zM488.4 190.6c-6.6 0-12-5.4-12-12s5.4-12 12-12h190.4c6.6 0 12 5.4 12 12s-5.4 12-12 12h-190.4zM131.2 214.4c-32.8 0-59.6 26.8-59.6 59.6s26.8 59.6 59.6 59.6c6.6 0 12 5.4 12 12s-5.4 12-12 12c-46 0-83.4-37.4-83.4-83.4s37.4-83.4 83.4-83.4h120.4c6.6 0.6 11.4 6.4 10.6 13l-5.8 58.4h-24l3.4-34.6c0.4-3.4-0.8-6.6-3-9.2-2.2-2.4-5.4-4-8.8-4H131.2z m67.8 499.8c19.8 2 37.2-12.4 39.2-32l12.2-122c46.8 19 79.8 64.8 79.8 118.4 0 70.4-57.4 127.8-127.8 127.8s-127.8-57.4-127.8-127.8c0-62.6 45.2-114.8 104.6-125.6l-12.2 122c-2 19.8 12.4 37.2 32 39.2z m182-35.6c0 98.4-80.2 178.6-178.6 178.6s-178.6-80.2-178.6-178.6c0-92.4 70.6-168.6 160.6-177.6l-2.8 27.4c-73.8 10.2-131 73.6-131 150.2 0 83.6 68 151.6 151.6 151.6s151.6-68 151.6-151.6c0-66-42.2-122-101.2-143l2.8-27.4c72.6 22.8 125.6 90.6 125.6 170.4z m155 60.8c-33.4 0-60.6-27.2-60.6-60.6 0-33.4 27.2-60.6 60.6-60.6 33.4 0 60.6 27.2 60.6 60.6 0 33.2-27.2 60.6-60.6 60.6zM295.2 381h234.6l-21.8 218-212.8-218z m455.4 262h-51.6c4.4-15.2 11.6-29 20.8-41.4l30.8 41.4z m-76.2 0h-27.6c6.4-31.6 21.2-60.2 42-83.4l16.4 22.2c-14.6 17.6-25.4 38.4-30.8 61.2z m-51.8 0h-10c-7.2-15.4-18.8-28.2-33.4-36.8l17.2-171 78.2 105.2c-26.6 27.8-45 63.2-52 102.6z m-3 47.6c0.6-3.8 0.8-7.8 0.8-12 0-4-0.4-8-0.8-12h154.8c4.4 0 8.6-2.6 10.6-6.6 2-4 1.6-8.8-1-12.4L597.2 396c-3-4-8-5.6-12.8-4.4-4.8 1.4-8.2 5.4-8.6 10.2l-19.4 194.6c-6.4-1.6-13.2-2.4-20.2-2.4h-3.6l22.4-224c0.4-3.4-0.8-6.6-3-9.2-2.2-2.4-5.4-4-8.8-4H266.8c-4.8 0-9.2 2.8-11 7.2-1.8 4.4-0.8 9.6 2.4 13L486 610.6c-6.4 4.8-12.2 10.4-17 16.6L260.6 414c-3.2-3.4-8-4.4-12.4-3-4.4 1.6-7.4 5.4-8 10l-25.8 258.8c-0.6 6.2-5.6 10.8-11.8 10.8h-1.2c-6.6-0.6-11.4-6.4-10.6-13L230 285.8h24l-3.4 34.6c-0.4 3.4 0.8 6.6 3 9.2 2.2 2.4 5.4 4 8.8 4h285.4c6.2 0 11.2-4.6 11.8-10.8l10.8-108.4h24l-11.8 117.4c-0.2 3 0.6 6 2.2 8.2l246.4 331.6c2.6 3.6 3.2 8.4 1 12.4-2 4-6.2 6.6-10.6 6.6h-202z m230.6-33.2l-73.2-98.4c13.8-5.2 28.8-8 44.4-8 70.4 0 127.8 57.4 127.8 127.8s-57.4 127.8-127.8 127.8c-58 0-107.2-39-122.6-92h122.6c13.6 0 25.8-7.6 32-19.6 6.2-12.4 5-26.8-3.2-37.6z m-28.6 199.8c-86.2 0-158.2-61.4-174.8-142.8h27.6c16.2 66.4 76 115.8 147.2 115.8 83.6 0 151.6-68 151.6-151.6s-68-151.6-151.6-151.6c-21 0-41 4.4-59.2 12.2l-16.6-22.2c23-10.8 48.6-16.8 75.6-16.8 98.4 0 178.6 80.2 178.6 178.6s-80 178.4-178.4 178.4z" fill="#5A309D" p-id="8393"></path></svg>
