<?xml version="1.0" standalone="no"?><!DOCTYPE svg PUBLIC "-//W3C//DTD SVG 1.1//EN" "http://www.w3.org/Graphics/SVG/1.1/DTD/svg11.dtd"><svg height="64" node-id="1" sillyvg="true" template-height="64" template-width="64" version="1.1" viewBox="0 0 64 64" width="64" style="transform: scaleX(6) scaleY(6);" xmlns="http://www.w3.org/2000/svg" xmlns:xlink="http://www.w3.org/1999/xlink"><defs node-id="160"><linearGradient gradientUnits="userSpaceOnUse" id="SVGID_1_" node-id="3" spreadMethod="pad" x1="32" x2="32" y1="61.8333" y2="27.6537"><stop offset="0" stop-color="#caf1d8"></stop><stop offset="0.5054" stop-color="#7defa4"></stop><stop offset="1" stop-color="#2fbca4"></stop></linearGradient><linearGradient gradientUnits="userSpaceOnUse" id="SVGID_2_" node-id="9" spreadMethod="pad" x1="34.6957" x2="34.6957" y1="66.0791" y2="-25.0853"><stop offset="0" stop-color="#caf1d8"></stop><stop offset="0.5054" stop-color="#7defa4"></stop><stop offset="1" stop-color="#2fbca4"></stop></linearGradient><linearGradient gradientUnits="userSpaceOnUse" id="SVGID_3_" node-id="14" spreadMethod="pad" x1="18.0344" x2="18.0344" y1="68.2269" y2="11.6783"><stop offset="0" stop-color="#caf1d8"></stop><stop offset="0.5054" stop-color="#7defa4"></stop><stop offset="1" stop-color="#2fbca4"></stop></linearGradient><linearGradient gradientUnits="userSpaceOnUse" id="SVGID_4_" node-id="19" spreadMethod="pad" x1="37.81" x2="37.81" y1="72.501" y2="7.3167"><stop offset="0" stop-color="#caf1d8"></stop><stop offset="0.5054" stop-color="#7defa4"></stop><stop offset="1" stop-color="#2fbca4"></stop></linearGradient><linearGradient gradientUnits="userSpaceOnUse" id="SVGID_5_" node-id="24" spreadMethod="pad" x1="42.6639" x2="42.6639" y1="66.8242" y2="46.2956"><stop offset="0" stop-color="#caf1d8"></stop><stop offset="0.5054" stop-color="#7defa4"></stop><stop offset="1" stop-color="#2fbca4"></stop></linearGradient><linearGradient gradientUnits="userSpaceOnUse" id="SVGID_6_" node-id="30" spreadMethod="pad" x1="16.1318" x2="16.1318" y1="57.287" y2="52.6294"><stop offset="0" stop-color="#caf1d8"></stop><stop offset="0.5054" stop-color="#7defa4"></stop><stop offset="1" stop-color="#2fbca4"></stop></linearGradient><linearGradient gradientUnits="userSpaceOnUse" id="SVGID_7_" node-id="35" spreadMethod="pad" x1="27.7662" x2="27.7662" y1="66.6119" y2="46.4959"><stop offset="0" stop-color="#caf1d8"></stop><stop offset="0.5054" stop-color="#7defa4"></stop><stop offset="1" stop-color="#2fbca4"></stop></linearGradient><linearGradient gradientUnits="userSpaceOnUse" id="SVGID_8_" node-id="41" spreadMethod="pad" x1="44.8239" x2="44.8239" y1="19.342" y2="-5.9879"><stop offset="0" stop-color="#caf1d8"></stop><stop offset="0.5054" stop-color="#7defa4"></stop><stop offset="1" stop-color="#2fbca4"></stop></linearGradient><linearGradient gradientUnits="userSpaceOnUse" id="SVGID_9_" node-id="46" spreadMethod="pad" x1="50.2174" x2="50.2174" y1="24.3541" y2="-8.5784"><stop offset="0" stop-color="#caf1d8"></stop><stop offset="0.5054" stop-color="#7defa4"></stop><stop offset="1" stop-color="#2fbca4"></stop></linearGradient><linearGradient gradientUnits="userSpaceOnUse" id="SVGID_10_" node-id="51" spreadMethod="pad" x1="-1342.5122" x2="-1342.5122" y1="29.8751" y2="-31.6612"><stop offset="0" stop-color="#caf1d8"></stop><stop offset="0.5054" stop-color="#7defa4"></stop><stop offset="1" stop-color="#2fbca4"></stop></linearGradient><linearGradient gradientUnits="userSpaceOnUse" id="SVGID_11_" node-id="56" spreadMethod="pad" x1="-1337.7528" x2="-1337.7528" y1="29.8754" y2="-31.6624"><stop offset="0" stop-color="#caf1d8"></stop><stop offset="0.5054" stop-color="#7defa4"></stop><stop offset="1" stop-color="#2fbca4"></stop></linearGradient><linearGradient gradientUnits="userSpaceOnUse" id="SVGID_12_" node-id="61" spreadMethod="pad" x1="-1351.3776" x2="-1351.3776" y1="29.8754" y2="-31.6625"><stop offset="0" stop-color="#caf1d8"></stop><stop offset="0.5054" stop-color="#7defa4"></stop><stop offset="1" stop-color="#2fbca4"></stop></linearGradient><linearGradient gradientUnits="userSpaceOnUse" id="SVGID_13_" node-id="66" spreadMethod="pad" x1="-1326.0981" x2="-1326.0981" y1="29.8758" y2="-31.663"><stop offset="0" stop-color="#caf1d8"></stop><stop offset="0.5054" stop-color="#7defa4"></stop><stop offset="1" stop-color="#2fbca4"></stop></linearGradient><linearGradient gradientUnits="userSpaceOnUse" id="SVGID_14_" node-id="71" spreadMethod="pad" x1="-1344.7926" x2="-1344.7926" y1="21.9351" y2="-39.6018"><stop offset="0" stop-color="#caf1d8"></stop><stop offset="0.5054" stop-color="#7defa4"></stop><stop offset="1" stop-color="#2fbca4"></stop></linearGradient><linearGradient gradientUnits="userSpaceOnUse" id="SVGID_15_" node-id="76" spreadMethod="pad" x1="-1336.8533" x2="-1336.8533" y1="29.8752" y2="-31.6621"><stop offset="0" stop-color="#caf1d8"></stop><stop offset="0.5054" stop-color="#7defa4"></stop><stop offset="1" stop-color="#2fbca4"></stop></linearGradient><linearGradient gradientUnits="userSpaceOnUse" id="SVGID_16_" node-id="89" spreadMethod="pad" x1="41.2691" x2="35.9053" y1="20.9331" y2="12.5316"><stop offset="0" stop-color="#f78e6b"></stop><stop offset="1" stop-color="#f9aa8f"></stop></linearGradient><linearGradient gradientUnits="userSpaceOnUse" id="SVGID_17_" node-id="94" spreadMethod="pad" x1="21.253" x2="29.4904" y1="34.0418" y2="33.4397"><stop offset="0" stop-color="#f78e6b"></stop><stop offset="1" stop-color="#f9aa8f"></stop></linearGradient><linearGradient gradientUnits="userSpaceOnUse" id="SVGID_18_" node-id="100" spreadMethod="pad" x1="23.0383" x2="18.0946" y1="42.1563" y2="52.1188"><stop offset="0" stop-color="#bb2d25"></stop><stop offset="1" stop-color="#db4337"></stop></linearGradient><linearGradient gradientUnits="userSpaceOnUse" id="SVGID_19_" node-id="104" spreadMethod="pad" x1="20.3498" x2="33.1572" y1="36.9928" y2="36.9928"><stop offset="0" stop-color="#bb2d25"></stop><stop offset="1" stop-color="#db4337"></stop></linearGradient><linearGradient gradientUnits="userSpaceOnUse" id="SVGID_20_" node-id="110" spreadMethod="pad" x1="0.003" x2="51.7192" y1="47.6008" y2="20.5806"><stop offset="0" stop-color="#f78e6b"></stop><stop offset="1" stop-color="#f9aa8f"></stop></linearGradient><linearGradient gradientUnits="userSpaceOnUse" id="SVGID_21_" node-id="115" spreadMethod="pad" x1="19.8747" x2="38.1364" y1="23.4207" y2="12.3546"><stop offset="0" stop-color="#4c68b0"></stop><stop offset="0.5908" stop-color="#3b50a6"></stop><stop offset="1" stop-color="#3345a2"></stop></linearGradient><linearGradient gradientUnits="userSpaceOnUse" id="SVGID_22_" node-id="120" spreadMethod="pad" x1="30.1843" x2="41.2003" y1="14.0619" y2="14.0619"><stop offset="0" stop-color="#f9a141"></stop><stop offset="0.2222" stop-color="#f99b3a"></stop><stop offset="0.5508" stop-color="#f78926"></stop><stop offset="0.9436" stop-color="#f56d05"></stop><stop offset="1" stop-color="#f56800"></stop></linearGradient><linearGradient gradientUnits="userSpaceOnUse" id="SVGID_23_" node-id="127" spreadMethod="pad" x1="40.6509" x2="30.4035" y1="16.3707" y2="11.0807"><stop offset="0" stop-color="#f9a141"></stop><stop offset="0.2222" stop-color="#f99b3a"></stop><stop offset="0.5508" stop-color="#f78926"></stop><stop offset="0.9436" stop-color="#f56d05"></stop><stop offset="1" stop-color="#f56800"></stop></linearGradient><linearGradient gradientUnits="userSpaceOnUse" id="SVGID_24_" node-id="138" spreadMethod="pad" x1="16.242" x2="26.332" y1="31.3576" y2="31.3576"><stop offset="0" stop-color="#6c3f36"></stop><stop offset="1" stop-color="#532c0a"></stop></linearGradient><linearGradient gradientUnits="userSpaceOnUse" id="SVGID_25_" node-id="144" spreadMethod="pad" x1="24.8974" x2="14.7396" y1="31.8196" y2="24.8825"><stop offset="0" stop-color="#6c3f36"></stop><stop offset="1" stop-color="#532c0a"></stop></linearGradient><linearGradient gradientUnits="userSpaceOnUse" id="SVGID_26_" node-id="148" spreadMethod="pad" x1="24.314" x2="44.9764" y1="30.6017" y2="19.8062"><stop offset="0" stop-color="#f78e6b"></stop><stop offset="1" stop-color="#f9aa8f"></stop></linearGradient></defs><path d="M 60.00 32.00 C 60.00 47.46 47.46 60.00 32.00 60.00 C 16.54 60.00 4.00 47.46 4.00 32.00 C 4.00 16.54 16.54 4.00 32.00 4.00 C 47.46 4.00 60.00 16.54 60.00 32.00 Z" fill="url(#SVGID_1_)" fill-rule="nonzero" node-id="365" stroke="none" target-height="56" target-width="56" target-x="4" target-y="4"></path><g node-id="477"><path d="M 32.00 60.00 C 47.46 60.00 60.00 47.46 60.00 32.00 C 60.00 30.80 59.92 29.63 59.77 28.47 L 55.07 23.35 C 54.11 22.31 52.50 22.23 51.44 23.17 L 33.26 39.33 C 32.64 39.89 31.70 39.88 31.09 39.31 L 26.48 35.06 C 25.76 34.40 24.64 34.40 23.92 35.07 L 9.39 48.51 C 14.48 55.48 22.71 60.00 32.00 60.00 Z" fill="url(#SVGID_2_)" fill-rule="nonzero" group-id="1" node-id="369" stroke="none" target-height="37.77" target-width="50.609" target-x="9.391" target-y="22.23"></path><path d="M 23.90 39.39 C 24.78 38.44 25.26 37.18 25.26 35.88 L 25.26 35.66 C 25.26 34.97 24.44 34.59 23.93 35.06 C 23.93 35.06 23.92 35.06 23.92 35.07 L 9.39 48.51 C 12.17 52.31 15.87 55.37 20.18 57.38 L 26.68 47.56 L 23.82 44.23 C 22.62 42.83 22.66 40.76 23.90 39.39 Z" fill="url(#SVGID_3_)" fill-rule="nonzero" group-id="1" node-id="371" stroke="none" target-height="22.791" target-width="17.286" target-x="9.391" target-y="34.591"></path><path d="M 55.36 30.43 C 53.98 28.56 53.24 26.30 53.24 23.98 C 53.24 23.05 52.15 22.55 51.46 23.16 C 51.45 23.16 51.45 23.16 51.44 23.17 L 33.74 38.91 L 15.95 54.94 C 20.49 58.12 26.03 60.00 32.00 60.00 C 39.42 60.00 46.16 57.11 51.17 52.40 L 56.87 44.54 C 57.00 44.35 57.16 44.19 57.30 44.01 C 58.44 41.61 59.25 39.02 59.67 36.30 L 55.36 30.43 Z" fill="url(#SVGID_4_)" fill-rule="nonzero" group-id="1" node-id="373" stroke="none" target-height="37.454002" target-width="43.724" target-x="15.948" target-y="22.546"></path><path d="M 50.17 53.16 C 50.33 53.08 50.40 52.88 50.31 52.72 L 49.40 51.09 C 49.40 51.09 49.40 51.09 49.40 51.09 C 49.55 51.05 49.62 50.89 49.55 50.76 L 47.78 47.56 C 47.73 47.49 47.62 47.49 47.58 47.56 L 45.81 50.76 C 45.73 50.89 45.81 51.05 45.95 51.09 L 45.96 51.09 L 45.05 52.72 C 44.96 52.88 45.03 53.08 45.19 53.16 L 44.62 54.19 L 44.29 53.60 C 44.29 53.60 44.29 53.60 44.29 53.60 C 44.44 53.57 44.51 53.40 44.44 53.27 L 42.66 50.08 C 42.62 50.00 42.51 50.00 42.47 50.08 L 40.70 53.27 C 40.62 53.40 40.70 53.57 40.84 53.60 C 40.84 53.60 40.84 53.60 40.85 53.60 L 39.94 55.23 C 39.85 55.40 39.92 55.59 40.08 55.67 L 39.76 56.25 L 39.39 55.59 C 39.49 55.54 39.53 55.43 39.47 55.33 L 38.95 54.38 L 38.95 54.38 C 39.03 54.37 39.08 54.27 39.03 54.19 L 38.01 52.34 C 37.98 52.29 37.92 52.29 37.89 52.34 L 36.86 54.19 C 36.82 54.27 36.86 54.37 36.95 54.38 L 36.95 54.38 L 36.42 55.33 C 36.37 55.43 36.41 55.54 36.50 55.59 L 35.81 56.83 C 35.75 56.95 35.79 57.10 35.90 57.17 L 35.03 58.73 C 34.91 58.94 35.03 59.20 35.26 59.25 C 35.89 59.40 36.53 59.47 37.17 59.52 C 42.10 58.59 46.57 56.39 50.22 53.25 L 50.17 53.16 Z" fill="url(#SVGID_5_)" fill-rule="nonzero" group-id="1" node-id="375" stroke="none" target-height="12.028999" target-width="15.486" target-x="34.912" target-y="47.486"></path><g node-id="480"><path d="M 17.18 55.76 L 16.82 55.11 L 16.83 55.11 C 16.91 55.09 16.95 54.99 16.91 54.92 L 15.88 53.06 C 15.86 53.02 15.79 53.02 15.77 53.06 L 15.08 54.30 C 15.76 54.82 16.46 55.30 17.18 55.76 Z" fill="url(#SVGID_6_)" fill-rule="nonzero" group-id="1,4" node-id="379" stroke="none" target-height="2.7369995" target-width="2.1049995" target-x="15.079" target-y="53.019"></path><path d="M 37.18 57.89 L 36.49 56.65 C 36.58 56.60 36.62 56.49 36.57 56.39 L 36.04 55.45 L 36.05 55.45 C 36.13 55.43 36.17 55.33 36.13 55.25 L 35.10 53.40 C 35.08 53.36 35.01 53.36 34.99 53.40 L 33.96 55.25 C 33.91 55.33 33.96 55.43 34.04 55.45 L 34.04 55.45 L 33.68 56.10 L 32.99 54.85 C 32.99 54.85 32.99 54.85 32.99 54.85 C 33.14 54.82 33.21 54.66 33.14 54.52 L 31.36 51.33 C 31.32 51.25 31.21 51.25 31.17 51.33 L 29.39 54.52 C 29.32 54.66 29.39 54.82 29.54 54.85 C 29.54 54.85 29.54 54.85 29.54 54.85 L 29.07 55.72 L 28.05 53.88 C 28.20 53.80 28.27 53.60 28.18 53.44 L 27.28 51.81 C 27.28 51.81 27.28 51.81 27.28 51.81 C 27.43 51.78 27.50 51.61 27.43 51.48 L 25.65 48.29 C 25.61 48.21 25.50 48.21 25.46 48.29 L 23.68 51.48 C 23.61 51.61 23.68 51.78 23.83 51.81 C 23.83 51.81 23.83 51.81 23.83 51.81 L 22.93 53.44 C 22.84 53.60 22.91 53.80 23.07 53.88 L 22.49 54.91 L 22.17 54.33 L 22.17 54.33 C 22.32 54.29 22.39 54.13 22.32 53.99 L 20.54 50.80 C 20.50 50.73 20.39 50.73 20.35 50.80 L 18.57 53.99 C 18.50 54.13 18.57 54.29 18.72 54.33 C 18.72 54.33 18.72 54.33 18.72 54.33 L 17.82 55.96 C 17.79 56.01 17.78 56.06 17.78 56.12 C 21.95 58.58 26.81 60.00 32.00 60.00 C 33.97 60.00 35.89 59.79 37.75 59.41 L 37.09 58.23 C 37.20 58.16 37.25 58.01 37.18 57.89 Z" fill="url(#SVGID_7_)" fill-rule="nonzero" group-id="1,4" node-id="381" stroke="none" target-height="11.789001" target-width="19.969" target-x="17.78" target-y="48.211"></path></g></g><g node-id="478"><path d="M 48.43 9.33 C 46.38 10.79 43.39 12.34 40.05 13.46 C 40.05 13.46 44.00 12.34 49.60 10.23 C 49.22 9.92 48.83 9.62 48.43 9.33 Z" fill="url(#SVGID_8_)" fill-rule="nonzero" group-id="2" node-id="387" stroke="none" target-height="4.1289997" target-width="9.549999" target-x="40.049" target-y="9.331"></path><path d="M 54.03 14.73 C 53.28 14.98 51.96 15.16 51.31 15.81 C 50.51 16.61 48.06 17.61 45.28 18.00 C 45.28 18.00 49.82 17.58 55.15 16.25 C 54.80 15.73 54.42 15.22 54.03 14.73 Z" fill="url(#SVGID_9_)" fill-rule="nonzero" group-id="2" node-id="389" stroke="none" target-height="3.271" target-width="9.867001" target-x="45.283" target-y="14.726"></path><path d="M 32.47 18.97 C 32.47 18.97 27.87 19.83 25.18 19.27 C 22.50 18.70 21.10 19.87 19.29 19.07 C 17.47 18.28 15.92 19.32 15.41 20.08 C 14.90 20.84 13.53 20.08 12.51 20.76 C 11.49 21.43 8.94 21.37 8.94 21.37 C 8.94 21.37 16.71 23.84 32.47 18.97 Z" fill="url(#SVGID_10_)" fill-rule="nonzero" group-id="2" node-id="391" stroke="none" target-height="5.5670013" target-width="23.534" target-x="8.94" target-y="18.276"></path><path d="M 32.00 13.36 C 32.00 13.36 29.46 13.96 27.92 13.58 C 26.39 13.20 25.67 14.00 24.61 13.46 C 23.54 12.93 22.73 13.64 22.49 14.16 C 22.25 14.67 21.44 14.16 20.90 14.62 C 20.37 15.08 18.94 15.05 18.94 15.05 C 18.94 15.05 23.44 16.70 32.00 13.36 Z" fill="url(#SVGID_11_)" fill-rule="nonzero" group-id="2" node-id="393" stroke="none" target-height="3.7799997" target-width="13.057001" target-x="18.938" target-y="12.925"></path><path d="M 8.06 16.09 C 8.06 16.09 13.23 16.94 15.63 15.88 C 15.63 15.88 14.14 15.64 13.55 15.18 C 12.96 14.72 11.65 14.61 11.11 15.13 C 10.58 15.64 10.33 14.73 9.73 15.23 C 9.13 15.72 8.06 16.09 8.06 16.09 Z" fill="url(#SVGID_12_)" fill-rule="nonzero" group-id="2" node-id="395" stroke="none" target-height="2.323" target-width="7.5700006" target-x="8.056" target-y="14.614"></path><path d="M 39.30 9.18 C 39.30 9.18 36.35 10.17 34.94 9.91 C 34.94 9.91 35.79 9.63 36.11 9.34 C 36.44 9.04 37.19 8.85 37.52 9.04 C 37.84 9.24 37.96 8.76 38.32 8.94 C 38.68 9.12 39.30 9.18 39.30 9.18 Z" fill="url(#SVGID_13_)" fill-rule="nonzero" group-id="2" node-id="397" stroke="none" target-height="1.4099998" target-width="4.368" target-x="34.937" target-y="8.76"></path><path d="M 20.61 10.01 C 20.61 10.01 17.65 11.00 16.24 10.74 C 16.24 10.74 17.09 10.46 17.42 10.17 C 17.75 9.87 18.50 9.68 18.82 9.87 C 19.14 10.07 19.26 9.59 19.62 9.77 C 19.98 9.95 20.61 10.01 20.61 10.01 Z" fill="url(#SVGID_14_)" fill-rule="nonzero" group-id="2" node-id="399" stroke="none" target-height="1.4099998" target-width="4.368" target-x="16.242" target-y="9.59"></path><path d="M 24.79 9.80 C 24.79 9.80 27.06 9.63 27.94 9.05 C 27.94 9.05 27.29 9.10 26.98 9.00 C 26.68 8.89 26.12 8.98 25.96 9.20 C 25.80 9.43 25.58 9.13 25.39 9.36 C 25.20 9.58 24.79 9.80 24.79 9.80 Z" fill="url(#SVGID_15_)" fill-rule="nonzero" group-id="2" node-id="401" stroke="none" target-height="0.90999985" target-width="3.1490002" target-x="24.791" target-y="8.894"></path></g><g node-id="479"><path d="M 22.13 49.45 L 21.62 51.07 C 21.47 51.56 21.82 52.07 22.34 52.09 C 24.53 52.19 29.27 52.30 26.13 51.19 C 25.43 50.95 23.75 50.14 23.59 49.45 L 22.13 49.45 Z" fill="#4c68b0" fill-rule="nonzero" group-id="3" id="XMLID_3507_" node-id="82" stroke="none" target-height="2.8479996" target-width="7.8029995" target-x="21.466" target-y="49.453"></path><g node-id="481"><path d="M 40.72 33.65 C 40.55 33.65 40.38 33.59 40.23 33.48 C 39.87 33.21 39.79 32.70 40.06 32.34 C 41.10 30.95 42.71 30.13 44.59 30.02 C 46.41 29.92 48.29 30.52 49.86 31.69 C 50.23 31.96 50.30 32.48 50.03 32.84 C 49.76 33.20 49.24 33.28 48.88 33.01 C 47.61 32.06 46.12 31.58 44.68 31.66 C 43.29 31.74 42.12 32.33 41.38 33.32 C 41.22 33.53 40.97 33.65 40.72 33.65 Z" fill="#dfecf4" fill-rule="nonzero" group-id="3,5" node-id="409" stroke="none" target-height="3.723999" target-width="10.509998" target-x="39.792" target-y="29.923"></path></g><path d="M 39.56 29.90 C 39.56 29.90 42.09 29.64 42.54 30.31 C 42.99 30.98 41.95 33.09 41.50 32.41 C 41.06 31.74 41.06 31.74 41.06 31.74 C 41.06 31.74 40.10 31.35 39.56 31.24" fill="#ea9781" fill-rule="nonzero" group-id="3" node-id="412" stroke="none" target-height="3.4469986" target-width="3.4309998" target-x="39.556" target-y="29.638"></path><path d="M 12.04 51.62 C 12.79 49.77 13.13 47.81 12.98 45.89 C 12.75 42.91 11.40 40.41 9.18 38.84 C 7.78 37.85 6.17 37.34 4.50 37.26 C 4.61 37.82 4.73 38.38 4.87 38.94 C 6.07 39.07 7.22 39.47 8.23 40.18 C 10.05 41.46 11.15 43.54 11.35 46.02 C 11.46 47.43 11.26 48.87 10.79 50.27 C 11.19 50.73 11.60 51.19 12.04 51.62 Z" fill="#1a172e" fill-rule="nonzero" group-id="3" node-id="414" stroke="none" target-height="14.368" target-width="8.634001" target-x="4.499" target-y="37.257"></path><path d="M 30.15 19.25 C 30.15 19.25 31.84 31.29 40.05 31.29 L 40.05 30.00 C 40.05 30.00 34.91 28.02 34.91 18.71 L 30.15 19.25 Z" fill="#ea9781" fill-rule="nonzero" group-id="3" id="XMLID_4_" node-id="87" stroke="none" target-height="12.579" target-width="9.902" target-x="30.147" target-y="18.711"></path><path d="M 41.68 15.62 L 41.45 15.19 C 41.29 14.88 41.20 14.54 41.20 14.19 C 41.20 13.99 41.19 13.81 41.19 13.63 C 41.19 13.41 41.19 13.21 41.18 13.04 C 41.19 13.03 41.19 13.02 41.18 13.01 C 41.18 12.71 41.17 12.53 41.17 12.53 C 41.14 12.47 41.11 12.43 41.05 12.39 C 40.16 11.62 36.23 13.05 36.23 13.05 L 36.18 13.63 L 36.13 14.94 C 36.12 15.27 35.83 15.53 35.49 15.49 L 35.49 15.49 L 33.82 20.04 L 36.70 18.33 C 37.31 18.01 38.16 17.38 39.02 17.56 C 40.09 17.79 41.00 17.91 41.07 17.40 C 41.11 17.10 41.14 16.77 41.16 16.41 C 41.16 16.34 41.22 16.28 41.29 16.28 L 41.29 16.28 C 41.62 16.28 41.84 15.92 41.68 15.62 Z" fill="#f9aa8f" fill-rule="nonzero" group-id="3" node-id="417" stroke="none" target-height="8.4140005" target-width="8.021999" target-x="33.82" target-y="11.623"></path><path d="M 41.36 15.84 C 41.40 15.68 40.86 15.23 41.06 15.08 C 41.19 14.98 41.21 14.63 41.21 14.36 C 41.20 14.30 41.20 14.25 41.20 14.19 C 41.20 14.14 41.20 14.08 41.19 14.03 L 37.65 13.84 L 36.02 15.25 C 35.97 15.33 35.89 15.39 35.81 15.43 L 35.38 15.80 L 34.98 16.88 L 35.16 18.16 C 35.16 18.16 35.83 18.15 36.73 17.65 C 37.62 17.16 38.28 17.59 38.28 17.59 L 38.29 17.59 C 38.52 17.53 38.77 17.52 39.01 17.57 C 39.39 17.65 39.74 17.71 40.05 17.74 C 39.63 17.64 39.23 17.26 39.23 16.37 C 39.23 15.47 39.85 15.49 40.49 15.44 C 41.13 15.39 41.17 16.37 41.17 16.37 L 41.17 16.37 C 41.19 16.32 41.23 16.29 41.28 16.29 C 41.47 16.29 41.62 16.18 41.69 16.03 C 41.60 16.12 41.32 15.99 41.36 15.84 Z" fill="url(#SVGID_16_)" fill-rule="nonzero" group-id="3" node-id="419" stroke="none" target-height="4.316001" target-width="6.7070007" target-x="34.981" target-y="13.839"></path><path d="M 16.24 29.98 L 24.13 39.12 L 22.13 49.45 L 23.58 49.45 C 23.58 49.45 33.44 32.38 21.25 26.94 L 16.24 29.98 Z" fill="#ea9781" fill-rule="nonzero" group-id="3" id="XMLID_3_" node-id="93" stroke="none" target-height="22.514" target-width="17.194" target-x="16.242" target-y="26.939"></path><path d="M 21.72 27.16 L 21.16 27.00 L 16.24 29.98 L 19.25 33.47 C 20.89 34.08 22.52 34.48 23.68 34.71 C 24.33 34.84 24.56 35.65 24.07 36.10 L 22.64 37.40 L 24.13 39.12 L 23.79 40.91 C 25.06 40.11 26.32 39.17 27.28 38.12 C 27.64 33.90 26.55 29.55 21.72 27.16 Z" fill="url(#SVGID_17_)" fill-rule="nonzero" group-id="3" node-id="422" stroke="none" target-height="13.911001" target-width="11.399" target-x="16.242" target-y="26.998"></path><path d="M 43.21 35.84 L 23.61 35.84 C 19.45 35.84 15.35 37.25 12.06 39.80 L 6.68 43.96 C 6.96 44.56 7.28 45.15 7.60 45.73 L 13.26 41.35 C 16.21 39.07 19.89 37.82 23.62 37.82 L 40.33 37.82 L 36.33 40.93 C 30.77 45.25 23.84 47.63 16.80 47.63 L 8.77 47.63 C 9.22 48.31 9.71 48.97 10.23 49.60 L 16.80 49.60 C 24.27 49.60 31.64 47.07 37.54 42.49 L 43.81 37.61 C 44.14 37.35 44.28 36.91 44.14 36.51 C 44.00 36.11 43.63 35.84 43.21 35.84 Z" fill="#db4337" fill-rule="nonzero" group-id="3" node-id="424" stroke="none" target-height="13.754997" target-width="37.597" target-x="6.679" target-y="35.845"></path><path d="M 28.45 45.41 C 28.45 45.41 28.45 45.41 28.45 45.41 C 24.75 46.86 20.79 47.63 16.80 47.63 L 12.88 47.63 C 12.72 48.38 12.65 49.05 12.62 49.60 L 16.80 49.60 C 20.51 49.60 24.20 48.98 27.69 47.79 C 27.75 46.67 27.95 45.73 28.45 45.41 Z" fill="url(#SVGID_18_)" fill-rule="nonzero" group-id="3,6" node-id="428" stroke="none" target-height="4.1919975" target-width="15.834" target-x="12.618" target-y="45.408"></path><path d="M 21.18 36.01 C 21.17 36.01 21.17 36.01 21.16 36.01 C 21.24 36.03 22.19 36.35 20.35 38.14 C 21.42 37.93 22.52 37.81 23.61 37.81 L 33.10 37.81 C 33.20 37.11 33.17 36.44 32.97 35.84 L 24.89 35.84 L 21.18 36.01 Z" fill="url(#SVGID_19_)" fill-rule="nonzero" group-id="3,6" node-id="430" stroke="none" target-height="2.2939987" target-width="12.851999" target-x="20.35" target-y="35.845"></path><path d="M 22.97 47.67 C 22.97 49.53 21.47 51.04 19.61 51.04 C 17.75 51.04 16.24 49.53 16.24 47.67 C 16.24 45.82 17.75 44.31 19.61 44.31 C 21.47 44.31 22.97 45.82 22.97 47.67 Z" fill="#1a172e" fill-rule="nonzero" group-id="3" node-id="433" stroke="none" target-height="6.7320023" target-width="6.7320004" target-x="16.242" target-y="44.309"></path><path d="M 19.72 43.53 L 18.36 42.72 L 26.01 35.77 C 26.50 35.32 26.27 34.51 25.62 34.38 C 22.33 33.72 15.16 31.75 15.16 27.05 C 15.16 26.11 15.26 25.24 15.46 24.46 L 24.41 27.05 C 41.61 35.59 19.72 43.53 19.72 43.53 Z" fill="#f9aa8f" fill-rule="nonzero" group-id="3" id="XMLID_3517_" node-id="109" stroke="none" target-height="19.077002" target-width="26.455997" target-x="15.158" target-y="24.456"></path><path d="M 27.23 28.67 L 20.48 30.38 C 20.48 30.38 20.16 31.24 19.69 32.50 C 21.77 33.50 24.11 34.08 25.62 34.38 C 26.27 34.51 26.50 35.32 26.01 35.77 L 18.36 42.72 L 19.41 43.35 C 20.24 43.12 21.19 42.84 21.98 42.58 C 22.50 42.34 23.08 42.06 23.69 41.74 C 24.11 41.02 23.98 39.67 23.75 39.28 C 23.49 38.85 26.91 36.81 27.81 35.17 C 28.72 33.53 26.50 32.82 26.50 32.82 L 29.13 30.19 C 28.62 29.69 27.99 29.18 27.23 28.67 Z" fill="url(#SVGID_20_)" fill-rule="nonzero" group-id="3" node-id="436" stroke="none" target-height="14.678999" target-width="10.762999" target-x="18.363" target-y="28.669"></path><path d="M 35.55 15.50 L 35.25 17.97 C 35.07 19.41 34.15 20.65 32.82 21.24 L 29.54 22.69 C 27.47 23.60 25.72 25.08 24.47 26.96 L 24.41 27.05 L 15.46 24.45 C 18.12 13.59 35.55 15.50 35.55 15.50 Z" fill="#4c68b0" fill-rule="nonzero" group-id="3" id="XMLID_3516_" node-id="114" stroke="none" target-height="13.461" target-width="20.092999" target-x="15.458" target-y="13.587"></path><path d="M 15.46 24.46 L 17.07 24.92 C 18.01 25.16 21.29 25.87 22.32 24.31 C 23.52 22.47 22.75 20.86 25.50 20.48 C 28.26 20.09 29.03 22.93 29.03 22.93 C 29.03 22.93 31.18 15.63 32.85 17.10 C 34.52 18.57 34.88 18.12 35.10 18.18 C 35.16 18.19 35.21 18.11 35.24 17.98 C 35.24 17.98 35.25 17.97 35.25 17.97 L 35.36 17.03 L 35.36 17.03 L 35.36 17.03 L 35.55 15.50 C 35.55 15.50 18.12 13.59 15.46 24.46 Z" fill="url(#SVGID_21_)" fill-rule="nonzero" group-id="3" node-id="439" stroke="none" target-height="12.283001" target-width="20.092" target-x="15.459" target-y="13.587"></path><path d="M 36.18 13.16 C 36.18 13.16 34.41 13.27 32.06 12.16 C 29.72 11.06 29.26 14.35 32.49 15.62 C 35.73 16.89 36.78 15.69 37.37 15.20 C 37.96 14.71 39.87 15.49 40.53 14.92 C 41.20 14.36 41.15 13.97 41.20 13.17" fill="url(#SVGID_22_)" fill-rule="nonzero" group-id="3" node-id="441" stroke="none" target-height="5.83" target-width="11.949001" target-x="29.256" target-y="11.059"></path><path d="M 32.06 12.16 C 29.85 11.12 29.32 13.98 31.97 15.38 C 33.23 15.38 31.93 14.78 31.91 13.67 C 31.88 12.57 34.33 13.76 35.29 14.78 C 36.09 15.64 37.14 15.28 37.46 15.14 C 37.49 15.13 37.51 15.12 37.54 15.11 C 37.55 15.10 37.56 15.10 37.56 15.10 C 35.81 14.51 37.30 13.71 38.49 13.92 C 40.72 14.32 41.20 13.16 41.20 13.16 L 36.18 13.16 C 36.18 13.16 34.41 13.27 32.06 12.16 Z" fill="url(#SVGID_23_)" fill-rule="nonzero" group-id="3" node-id="443" stroke="none" target-height="4.519" target-width="11.883001" target-x="29.317" target-y="11.122"></path><path d="M 33.81 19.24 C 33.81 17.65 32.52 16.36 30.93 16.36 C 29.34 16.36 28.05 17.65 28.05 19.24 C 28.05 19.45 28.07 19.65 28.11 19.85 L 28.11 19.85 C 28.11 19.85 31.18 33.79 39.56 33.79 L 39.56 32.29 C 39.56 32.29 33.81 30.01 33.81 19.24 Z" fill="#f9aa8f" fill-rule="nonzero" group-id="3" node-id="445" stroke="none" target-height="17.425001" target-width="11.508999" target-x="28.048" target-y="16.365"></path><path d="M 41.20 13.16 C 41.20 13.16 41.20 13.16 41.19 13.16 L 36.18 13.16 L 36.23 12.82 C 36.23 12.82 40.16 11.51 41.05 12.27 C 41.12 12.49 41.16 12.77 41.18 12.95 C 41.19 12.96 41.19 12.77 41.18 12.78 C 41.22 13.12 41.20 13.16 41.20 13.16 Z" fill="#be6e5f" fill-rule="nonzero" group-id="3" id="XMLID_3510_" node-id="135" stroke="none" target-height="1.6590004" target-width="5.040001" target-x="36.179" target-y="11.506"></path><path d="M 41.20 13.16 C 41.20 13.16 41.41 10.55 39.21 10.55 C 38.15 10.55 34.48 13.16 35.76 13.16 C 37.36 13.16 39.95 13.16 41.20 13.16 Z" fill="#361f19" fill-rule="nonzero" group-id="3" id="XMLID_3509_" node-id="136" stroke="none" target-height="2.6149998" target-width="6.931999" target-x="34.477" target-y="10.55"></path><path d="M 18.78 42.30 L 17.92 42.93 C 17.29 43.38 17.39 44.35 18.10 44.66 C 20.51 45.72 24.58 47.37 22.24 45.37 C 21.67 44.89 20.61 43.68 20.22 43.34 L 18.78 42.30 Z" fill="#4c68b0" fill-rule="nonzero" group-id="3" id="XMLID_3508_" node-id="137" stroke="none" target-height="5.0670013" target-width="7.2959995" target-x="17.285" target-y="42.305"></path><path d="M 21.25 26.94 L 16.24 29.98 L 20.90 35.37 C 21.34 35.88 22.12 35.91 22.59 35.44 L 26.33 31.70 C 25.43 29.77 23.84 28.09 21.25 26.94 Z" fill="url(#SVGID_24_)" fill-rule="nonzero" group-id="3" node-id="450" stroke="none" target-height="8.973999" target-width="10.088999" target-x="16.242" target-y="26.939"></path><path d="M 19.55 35.25 L 18.08 35.25 C 17.43 35.25 16.90 34.72 16.90 34.07 L 16.90 33.41 C 16.90 32.76 17.43 32.24 18.08 32.24 L 22.88 32.24 C 23.34 32.24 23.54 32.82 23.17 33.10 L 21.08 34.73 C 20.64 35.07 20.10 35.25 19.55 35.25 Z" fill="#1a172e" fill-rule="nonzero" group-id="3" node-id="452" stroke="none" target-height="3.014" target-width="6.636999" target-x="16.899" target-y="32.237"></path><path d="M 24.41 27.05 L 15.46 24.46 L 15.46 24.46 C 15.26 25.25 15.16 26.12 15.16 27.05 C 15.16 31.09 20.44 33.11 24.02 34.01 L 28.45 29.58 C 27.45 28.75 26.12 27.90 24.41 27.05 Z" fill="#6c3f36" fill-rule="nonzero" group-id="3" node-id="454" stroke="none" target-height="9.556999" target-width="13.292001" target-x="15.158" target-y="24.457"></path><path d="M 15.46 24.46 C 15.26 25.25 15.16 26.12 15.16 27.05 C 15.16 30.70 19.48 32.70 22.95 33.72 C 19.32 32.47 18.40 29.17 21.79 29.05 C 25.50 28.93 24.41 27.05 24.41 27.05 L 15.46 24.46 L 15.46 24.46 Z" fill="url(#SVGID_25_)" fill-rule="nonzero" group-id="3" node-id="456" stroke="none" target-height="9.267" target-width="10.342" target-x="15.158" target-y="24.456"></path><path d="M 31.64 23.38 C 32.37 21.37 28.97 20.40 29.66 18.15 C 30.34 15.99 32.21 16.68 32.34 16.74 C 31.92 16.50 31.44 16.36 30.93 16.36 C 29.34 16.36 28.05 17.65 28.05 19.24 C 28.05 19.45 28.07 19.65 28.11 19.85 L 28.11 19.85 C 28.11 19.85 31.18 33.79 39.56 33.79 C 32.58 32.55 30.90 25.39 31.64 23.38 Z" fill="url(#SVGID_26_)" fill-rule="nonzero" group-id="3" node-id="458" stroke="none" target-height="17.803001" target-width="11.508999" target-x="28.048" target-y="15.986"></path><path d="M 47.50 60.00 C 45.62 60.00 43.84 59.46 42.34 58.39 C 40.12 56.82 38.76 54.31 38.53 51.34 C 38.30 48.42 39.19 45.38 41.02 42.80 C 42.85 40.21 45.41 38.36 48.24 37.60 C 51.13 36.83 53.94 37.27 56.16 38.84 C 58.38 40.41 59.73 42.91 59.97 45.89 C 60.19 48.81 59.31 51.84 57.48 54.43 L 57.48 54.43 C 55.65 57.02 53.08 58.87 50.26 59.63 C 49.33 59.88 48.40 60.00 47.50 60.00 Z M 50.99 38.87 C 50.23 38.87 49.46 38.98 48.67 39.19 C 46.21 39.85 43.97 41.47 42.36 43.74 C 40.75 46.02 39.97 48.67 40.17 51.21 C 40.36 53.69 41.47 55.77 43.28 57.05 C 45.10 58.34 47.42 58.69 49.83 58.04 C 52.29 57.38 54.53 55.76 56.14 53.49 L 56.14 53.49 C 57.75 51.21 58.52 48.56 58.33 46.02 C 58.13 43.54 57.03 41.47 55.21 40.18 C 53.99 39.32 52.54 38.87 50.99 38.87 Z" fill="#1a172e" fill-rule="nonzero" group-id="3,7" node-id="462" stroke="none" target-height="23.171001" target-width="21.887001" target-x="38.305" target-y="36.829"></path><path d="M 49.16 49.60 C 45.23 49.60 42.03 45.48 42.03 40.42 C 42.03 35.37 45.23 31.25 49.16 31.25 C 49.71 31.25 50.15 31.69 50.15 32.23 C 50.15 32.78 49.71 33.22 49.16 33.22 C 46.32 33.22 44.00 36.45 44.00 40.42 C 44.00 44.40 46.32 47.63 49.16 47.63 C 49.71 47.63 50.15 48.07 50.15 48.61 C 50.15 49.16 49.71 49.60 49.16 49.60 Z" fill="#db4337" fill-rule="nonzero" group-id="3,8" node-id="467" stroke="none" target-height="18.349998" target-width="8.116001" target-x="42.031" target-y="31.25"></path><path d="M 39.83 35.23 C 39.72 35.23 39.60 35.20 39.49 35.16 C 39.08 34.97 38.89 34.48 39.08 34.07 C 39.82 32.43 41.27 31.23 43.16 30.71 C 44.99 30.20 47.03 30.38 48.89 31.22 C 49.31 31.41 49.49 31.90 49.30 32.31 C 49.12 32.72 48.63 32.91 48.22 32.72 C 46.70 32.03 45.06 31.88 43.60 32.29 C 42.19 32.68 41.11 33.55 40.58 34.74 C 40.44 35.05 40.14 35.23 39.83 35.23 Z" fill="#dfecf4" fill-rule="nonzero" group-id="3,9" node-id="472" stroke="none" target-height="5.031" target-width="10.596001" target-x="38.894" target-y="30.197"></path><path d="M 39.56 32.29 C 39.56 32.29 42.39 32.00 42.89 32.75 C 43.40 33.50 42.23 35.85 41.73 35.10 C 41.24 34.35 41.24 34.35 41.24 34.35 C 41.24 34.35 39.71 33.87 39.10 33.74" fill="#f9aa8f" fill-rule="nonzero" group-id="3" node-id="475" stroke="none" target-height="3.855999" target-width="4.299" target-x="39.096" target-y="31.999"></path></g></svg>
